<svg xmlns="http://www.w3.org/2000/svg" xmlns:xlink="http://www.w3.org/1999/xlink" width="1080" zoomAndPan="magnify" viewBox="0 0 810 809.999993" height="1080" preserveAspectRatio="xMidYMid meet" version="1.0"><defs><clipPath id="7ffe5093c8"><path d="M 644 213 L 700.179688 213 L 700.179688 489 L 644 489 Z M 644 213 " clip-rule="nonzero"/></clipPath><clipPath id="9a363047f5"><path d="M 644 488 L 700.179688 488 L 700.179688 532 L 644 532 Z M 644 488 " clip-rule="nonzero"/></clipPath></defs><path fill="#322426" d="M 639.140625 747.859375 C 658.308594 745.628906 663.820312 792.527344 644.574219 794.777344 C 627.308594 796.867188 610.035156 798.851562 592.816406 800.875 C 585.457031 801.734375 575.367188 803.886719 571.421875 795.546875 C 566.039062 784.394531 579.261719 773.632812 586.664062 767.183594 C 602.933594 752.949219 618.390625 750.339844 639.140625 747.859375 " fill-opacity="1" fill-rule="nonzero"/><path fill="#322426" d="M 604.890625 724.476562 C 623.996094 722.210938 629.59375 769.167969 610.304688 771.414062 C 593.070312 773.414062 575.84375 775.433594 558.535156 777.492188 C 551.300781 778.355469 541.1875 780.492188 537.136719 772.175781 C 531.757812 760.972656 545.113281 750.1875 552.363281 743.769531 C 568.605469 729.53125 584.105469 726.882812 604.890625 724.476562 " fill-opacity="1" fill-rule="nonzero"/><path fill="#b2a573" d="M 631.726562 197.222656 L 584.019531 197.222656 L 584.019531 133.929688 L 631.726562 133.929688 L 631.726562 197.222656 " fill-opacity="1" fill-rule="nonzero"/><path fill="#ebebd6" d="M 616.523438 176.132812 L 644.550781 179.785156 L 602.8125 225.484375 L 568.835938 219.757812 L 573.777344 176.132812 L 597.71875 173.8125 L 616.523438 176.132812 " fill-opacity="1" fill-rule="nonzero"/><path fill="#3f957d" d="M 541.625 747.761719 L 541.625 396.867188 C 541.625 377.359375 558.417969 361.402344 579.144531 361.402344 C 599.839844 361.402344 616.527344 377.359375 616.527344 396.867188 L 616.527344 747.761719 L 541.625 747.761719 " fill-opacity="1" fill-rule="nonzero"/><path fill="#49c19e" d="M 589.007812 760.804688 L 589.007812 438.347656 C 589.007812 418.78125 605.765625 402.890625 626.378906 402.890625 C 647.066406 402.890625 663.851562 418.78125 663.851562 424.460938 L 663.851562 746.925781 L 589.007812 760.804688 " fill-opacity="1" fill-rule="nonzero"/><path fill="#3f957d" d="M 568.835938 245.078125 C 554.429688 236.964844 557.707031 178.242188 549.265625 192.003906 L 484.308594 316.207031 L 424.679688 356.144531 L 455.738281 405.257812 C 479.183594 389.441406 514.015625 365.726562 515.859375 362.871094 C 515.859375 362.871094 583.109375 252.980469 568.835938 245.078125 " fill-opacity="1" fill-rule="nonzero"/><path fill="#49c19e" d="M 522.867188 302.402344 L 549.269531 192.003906 L 573.777344 176.136719 C 575.40625 175.621094 581.386719 263.226562 581.386719 263.226562 L 629.738281 190.097656 C 630.09375 190.304688 642.945312 179.1875 644.546875 179.78125 L 695.023438 225.484375 L 677.425781 531.503906 L 621.117188 526.265625 L 522.867188 483.003906 L 522.867188 302.402344 " fill-opacity="1" fill-rule="nonzero"/><g clip-path="url(#7ffe5093c8)"><path fill="#3f957d" d="M 700.011719 241.292969 C 700.011719 225.964844 687.597656 213.644531 672.28125 213.644531 C 656.933594 213.644531 644.546875 225.964844 644.546875 241.292969 L 644.546875 488.996094 L 700.011719 488.996094 L 700.011719 241.292969 " fill-opacity="1" fill-rule="nonzero"/></g><g clip-path="url(#9a363047f5)"><path fill="#cfbd7f" d="M 644.546875 488.996094 L 644.546875 503.921875 C 644.546875 519.160156 656.933594 531.503906 672.28125 531.503906 C 687.597656 531.503906 700.011719 519.160156 700.011719 503.921875 L 700.011719 488.996094 L 644.546875 488.996094 " fill-opacity="1" fill-rule="nonzero"/></g><path fill="#cfbd7f" d="M 582.492188 159.675781 L 582.074219 159.519531 C 555.847656 152.859375 545.984375 124 545.050781 90.523438 C 545.097656 89.738281 546.132812 73.429688 548.117188 66.34375 C 554.933594 40.96875 585.277344 26.667969 615.742188 34.363281 L 616.238281 34.363281 C 646.730469 42.070312 666.003906 68.988281 659.203125 94.394531 C 657.25 101.292969 650.027344 116.1875 649.625 116.984375 C 632.070312 145.796875 608.765625 166.238281 582.492188 159.675781 " fill-opacity="1" fill-rule="nonzero"/><path fill="#534647" d="M 554.550781 58.203125 C 554.550781 58.203125 557.210938 54.699219 561.332031 58.203125 C 565.390625 61.726562 564.003906 63.070312 573.804688 65.140625 C 583.679688 67.210938 615.574219 64.59375 623.753906 68.8125 C 631.824219 72.835938 626.738281 79.484375 629.957031 92.0625 C 633.175781 104.558594 635.113281 102.828125 643.117188 93.644531 C 651.28125 84.609375 657.820312 110.519531 639.097656 127.269531 C 634.234375 131.542969 629.410156 137.46875 636.222656 134.945312 C 643.046875 132.234375 680.832031 95.859375 660.609375 54.375 C 640.222656 13.085938 594.609375 21.269531 582.863281 23.402344 C 558.300781 27.914062 539.882812 69.261719 554.550781 58.203125 " fill-opacity="1" fill-rule="nonzero"/><path fill="#b2a573" d="M 180.746094 189.820312 L 228.445312 189.820312 L 228.445312 126.703125 L 180.746094 126.703125 L 180.746094 189.820312 " fill-opacity="1" fill-rule="nonzero"/><path fill="#cfbd7f" d="M 229.964844 152.277344 L 230.457031 152.117188 C 256.644531 145.582031 266.617188 116.683594 267.433594 83.324219 C 267.417969 82.335938 266.382812 66.019531 264.351562 58.984375 C 257.515625 33.578125 227.335938 19.265625 196.726562 26.980469 L 196.246094 27.15625 C 165.78125 34.863281 146.578125 61.691406 153.394531 87.054688 C 155.207031 94.058594 162.492188 108.980469 162.847656 109.757812 C 180.441406 138.386719 203.683594 159.007812 229.964844 152.277344 " fill-opacity="1" fill-rule="nonzero"/><path fill="#534647" d="M 262.074219 52.828125 C 262.074219 52.828125 252.40625 47.027344 248.28125 50.519531 C 244.28125 54.050781 242.449219 83.609375 232.734375 85.6875 C 222.777344 87.675781 232.148438 78.375 220.28125 78.375 C 211.203125 78.375 203.191406 88.902344 206.683594 101.292969 C 212.476562 121.296875 219.511719 105.855469 223.171875 114.175781 C 227.136719 122.992188 207.183594 147.445312 197.34375 146.855469 C 165.914062 145.363281 169.144531 133.617188 157.351562 120.746094 C 152.359375 115.417969 131.6875 88.453125 151.925781 47.175781 C 172.234375 5.875 217.90625 13.902344 229.71875 16.003906 C 254.300781 20.519531 276.78125 63.722656 262.074219 52.828125 " fill-opacity="1" fill-rule="nonzero"/><path fill="#e74353" d="M 611.433594 183.257812 L 597.722656 173.804688 L 584.019531 176.132812 L 589.007812 197.21875 L 573.78125 225.480469 L 581.386719 263.226562 L 607.878906 233.660156 L 595.351562 198.253906 L 611.433594 183.257812 " fill-opacity="1" fill-rule="nonzero"/><path fill="#ebebd6" d="M 597.722656 173.804688 L 631.726562 160.847656 L 644.554688 179.78125 L 607.878906 197.222656 L 597.722656 173.804688 " fill-opacity="1" fill-rule="nonzero"/><path fill="#ebebd6" d="M 584.019531 165.578125 L 597.722656 173.804688 L 581.386719 192 L 573.777344 176.128906 L 584.019531 165.578125 " fill-opacity="1" fill-rule="nonzero"/><path fill="#3f957d" d="M 642.097656 176.132812 C 642.097656 176.132812 624.460938 189.683594 602.347656 217.167969 C 577.800781 247.785156 581.386719 263.226562 581.386719 263.226562 L 612.976562 239.023438 L 608.957031 231.648438 L 621.117188 231.945312 L 655.542969 189.789062 L 642.097656 176.132812 " fill-opacity="1" fill-rule="nonzero"/><path fill="#3f957d" d="M 573.773438 176.136719 L 581.382812 263.226562 L 564.511719 229.347656 L 570.144531 225.480469 L 564.511719 222.101562 L 562.304688 183.597656 L 573.773438 176.136719 " fill-opacity="1" fill-rule="nonzero"/><path fill="#b2a573" d="M 404.539062 369.726562 C 390.097656 377.519531 385.125 395.089844 393.28125 408.84375 C 398.914062 418.183594 409.046875 423.351562 419.554688 423.351562 C 424.546875 423.351562 429.765625 422.160156 434.449219 419.605469 C 434.449219 419.605469 443.613281 413.523438 455.738281 405.257812 L 424.679688 356.144531 L 404.539062 369.726562 " fill-opacity="1" fill-rule="nonzero"/><path fill="#322426" d="M 153.5625 719.152344 C 134.300781 721.472656 140.109375 768.953125 159.535156 766.636719 C 176.808594 764.523438 194.296875 762.414062 211.585938 760.335938 C 218.945312 759.460938 229.367188 759.15625 231.257812 750.035156 C 233.890625 737.722656 218.308594 730.347656 209.660156 725.734375 C 190.382812 715.566406 174.496094 716.667969 153.5625 719.152344 " fill-opacity="1" fill-rule="nonzero"/><path fill="#322426" d="M 187.261719 746.488281 C 168.007812 748.796875 173.605469 796.207031 193.03125 793.898438 C 210.449219 791.835938 227.824219 789.765625 245.128906 787.632812 C 252.550781 786.800781 262.878906 786.484375 264.90625 777.394531 C 267.417969 765.089844 251.984375 757.644531 243.171875 753.023438 C 223.917969 742.917969 208.136719 743.921875 187.261719 746.488281 " fill-opacity="1" fill-rule="nonzero"/><path fill="#534647" d="M 134.96875 738.429688 L 134.96875 383.4375 C 134.96875 363.632812 151.839844 347.527344 172.667969 347.527344 C 193.496094 347.527344 210.367188 363.632812 210.367188 383.4375 L 210.367188 738.429688 L 134.96875 738.429688 " fill-opacity="1" fill-rule="nonzero"/><path fill="#6d5b5b" d="M 182.601562 751.636719 L 182.601562 425.308594 C 182.601562 405.5 199.457031 389.453125 220.332031 389.453125 C 241.125 389.453125 257.984375 405.5 257.984375 425.308594 L 257.984375 751.636719 L 182.601562 751.636719 " fill-opacity="1" fill-rule="nonzero"/><path fill="#6d5b5b" d="M 128.734375 213.976562 C 133.515625 197.128906 172.082031 153.652344 172.667969 153.609375 C 172.667969 153.609375 227.039062 168.328125 228.796875 168.988281 L 288.800781 248.773438 L 266.746094 526.171875 L 195.855469 526.171875 L 119.097656 479.59375 C 119.097656 479.59375 110.089844 277.742188 128.734375 213.976562 " fill-opacity="1" fill-rule="nonzero"/><path fill="#534647" d="M 326.144531 324.523438 L 277.382812 225.59375 C 269.761719 211.375 251.699219 205.875 236.703125 212.902344 C 221.992188 220.078125 215.910156 237.4375 223.53125 251.480469 L 277.335938 359.796875 C 280.488281 365.746094 285.78125 370.476562 292.082031 373.066406 L 387.46875 412.660156 L 409.648438 359.15625 L 326.144531 324.523438 " fill-opacity="1" fill-rule="nonzero"/><path fill="#cfbd7f" d="M 431.503906 368.308594 L 409.648438 359.15625 L 387.464844 412.660156 L 407.492188 420.9375 C 411.371094 422.605469 415.449219 423.390625 419.5 423.390625 C 431.179688 423.390625 442.171875 416.835938 447.164062 406.042969 C 453.785156 391.523438 446.792969 374.609375 431.503906 368.308594 " fill-opacity="1" fill-rule="nonzero"/><path fill="#534647" d="M 153.453125 176.136719 L 209.707031 186.863281 L 259.5625 209.804688 L 228.796875 168.988281 L 172.667969 153.609375 L 153.453125 176.136719 " fill-opacity="1" fill-rule="nonzero"/></svg>