<svg xmlns="http://www.w3.org/2000/svg" xmlns:xlink="http://www.w3.org/1999/xlink" width="1080" zoomAndPan="magnify" viewBox="0 0 810 809.999993" height="1080" preserveAspectRatio="xMidYMid meet" version="1.0"><defs><clipPath id="01c38820e0"><path d="M 212 171 L 405 171 L 405 764.199219 L 212 764.199219 Z M 212 171 " clip-rule="nonzero"/></clipPath><clipPath id="adcfabee12"><path d="M 597 171 L 789.941406 171 L 789.941406 764.199219 L 597 764.199219 Z M 597 171 " clip-rule="nonzero"/></clipPath><clipPath id="9c7bc081c2"><path d="M 20 171 L 789.941406 171 L 789.941406 764.199219 L 20 764.199219 Z M 20 171 " clip-rule="nonzero"/></clipPath><clipPath id="c963a3390a"><path d="M 230 45.699219 L 580 45.699219 L 580 547 L 230 547 Z M 230 45.699219 " clip-rule="nonzero"/></clipPath></defs><path fill="#e0d7b3" d="M 404.816406 548.203125 L 777.839844 673.921875 L 777.839844 226.265625 L 647.453125 195.527344 Z M 404.816406 548.203125 " fill-opacity="1" fill-rule="nonzero"/><path fill="#e0d7b3" d="M 31.789062 422.503906 L 31.789062 749.492188 L 212.441406 706.890625 L 284.027344 723.78125 L 404.816406 548.203125 Z M 31.789062 422.503906 " fill-opacity="1" fill-rule="nonzero"/><path fill="#9ed36a" d="M 777.839844 673.921875 L 404.816406 548.203125 L 284.027344 723.78125 L 404.816406 752.25 L 597.191406 706.890625 L 777.839844 749.492188 Z M 777.839844 673.921875 " fill-opacity="1" fill-rule="nonzero"/><path fill="#4fc0e8" d="M 31.789062 422.503906 L 404.816406 548.203125 L 647.453125 195.527344 L 597.191406 183.683594 L 404.816406 229.039062 L 212.441406 183.683594 L 31.789062 226.265625 Z M 31.789062 422.503906 " fill-opacity="1" fill-rule="nonzero"/><path fill="#f4f6f9" d="M 305.140625 728.75 L 415.148438 568.867188 L 777.839844 691.089844 L 777.839844 656.746094 L 434.324219 540.980469 L 668.5625 200.507812 L 626.335938 190.546875 L 394.484375 527.554688 L 31.789062 405.328125 L 31.789062 439.675781 L 375.308594 555.433594 L 262.921875 718.800781 Z M 305.140625 728.75 " fill-opacity="1" fill-rule="nonzero"/><path fill="#fff5ca" d="M 31.789062 749.492188 L 212.441406 706.890625 L 220.335938 708.757812 L 316.285156 569.308594 L 31.789062 473.433594 Z M 31.789062 749.492188 " fill-opacity="1" fill-rule="nonzero"/><path fill="#fff5ca" d="M 777.839844 622.191406 L 777.839844 433.765625 L 598.949219 373.476562 L 493.710938 526.441406 Z M 777.839844 622.191406 " fill-opacity="1" fill-rule="nonzero"/><g clip-path="url(#01c38820e0)"><path fill="#4c5b66" d="M 212.441406 171.636719 L 404.816406 216.988281 L 404.816406 764.304688 L 212.441406 718.953125 Z M 212.441406 171.636719 " fill-opacity="0.2" fill-rule="nonzero"/></g><path fill="#fff5ca" d="M 618.132812 345.589844 L 777.839844 399.417969 L 777.839844 226.265625 L 711.058594 210.527344 Z M 618.132812 345.589844 " fill-opacity="1" fill-rule="nonzero"/><g clip-path="url(#adcfabee12)"><path fill="#4c5b66" d="M 597.191406 171.636719 L 789.570312 216.988281 L 789.570312 764.304688 L 597.191406 718.953125 Z M 597.191406 171.636719 " fill-opacity="0.2" fill-rule="nonzero"/></g><g clip-path="url(#9c7bc081c2)"><path fill="#e5e8ec" d="M 597.191406 171.636719 L 404.816406 216.988281 L 212.441406 171.636719 L 20.0625 216.988281 L 20.0625 764.304688 L 212.441406 718.953125 L 404.816406 764.304688 L 597.191406 718.953125 L 789.570312 764.304688 L 789.570312 216.988281 Z M 766.117188 734.675781 L 602.574219 696.109375 L 597.191406 694.84375 L 591.816406 696.109375 L 404.816406 740.203125 L 217.820312 696.109375 L 212.441406 694.84375 L 207.058594 696.109375 L 43.511719 734.675781 L 43.511719 235.558594 L 212.441406 195.726562 L 399.4375 239.820312 L 404.816406 241.089844 L 410.195312 239.820312 L 597.191406 195.726562 L 766.117188 235.558594 Z M 766.117188 734.675781 " fill-opacity="1" fill-rule="nonzero"/></g><g clip-path="url(#c963a3390a)"><path fill="#ec5564" d="M 528.621094 101.949219 C 512.59375 84.367188 493.910156 70.554688 473.089844 60.898438 C 451.4375 50.84375 428.453125 45.746094 404.769531 45.746094 C 381.121094 45.746094 358.152344 50.84375 336.503906 60.898438 C 315.679688 70.554688 297.007812 84.367188 280.957031 101.949219 C 248.140625 137.972656 230.074219 185.78125 230.074219 236.578125 C 230.074219 285.042969 251.917969 344.898438 295.007812 414.433594 C 328.917969 469.117188 367.140625 515.449219 386.890625 538.199219 C 391.390625 543.753906 397.839844 546.867188 404.773438 546.867188 L 404.816406 546.867188 C 411.742188 546.867188 418.203125 543.753906 422.550781 538.363281 C 442.4375 515.460938 480.644531 469.15625 514.554688 414.433594 C 557.660156 344.898438 579.53125 285.066406 579.53125 236.578125 C 579.53125 185.78125 561.449219 137.972656 528.621094 101.949219 Z M 528.621094 101.949219 " fill-opacity="1" fill-rule="nonzero"/></g><path fill="#d94452" d="M 404.792969 152.808594 C 359.878906 152.808594 323.328125 189.363281 323.328125 234.304688 C 323.328125 279.25 359.878906 315.828125 404.792969 315.828125 C 449.691406 315.828125 486.253906 279.25 486.253906 234.304688 C 486.253906 189.359375 449.691406 152.808594 404.792969 152.808594 Z M 404.792969 152.808594 " fill-opacity="1" fill-rule="nonzero"/></svg>