<svg xmlns="http://www.w3.org/2000/svg" xmlns:xlink="http://www.w3.org/1999/xlink" width="1080" zoomAndPan="magnify" viewBox="0 0 810 809.999993" height="1080" preserveAspectRatio="xMidYMid meet" version="1.0"><defs><clipPath id="245e6a9b29"><path d="M 482 109.316406 L 681 109.316406 L 681 261 L 482 261 Z M 482 109.316406 " clip-rule="nonzero"/></clipPath><clipPath id="5ff9c3725a"><path d="M 597 395 L 774.894531 395 L 774.894531 541 L 597 541 Z M 597 395 " clip-rule="nonzero"/></clipPath><clipPath id="a400bc13f4"><path d="M 268 549 L 378 549 L 378 700.316406 L 268 700.316406 Z M 268 549 " clip-rule="nonzero"/></clipPath><clipPath id="85532222a3"><path d="M 289 601 L 356 601 L 356 700.316406 L 289 700.316406 Z M 289 601 " clip-rule="nonzero"/></clipPath><clipPath id="865b104cdb"><path d="M 343 507 L 612 507 L 612 700.316406 L 343 700.316406 Z M 343 507 " clip-rule="nonzero"/></clipPath><clipPath id="df883006b2"><path d="M 35.394531 507 L 304 507 L 304 700.316406 L 35.394531 700.316406 Z M 35.394531 507 " clip-rule="nonzero"/></clipPath><clipPath id="2ab18588e8"><path d="M 341 483 L 470 483 L 470 700.316406 L 341 700.316406 Z M 341 483 " clip-rule="nonzero"/></clipPath><clipPath id="da375a81c9"><path d="M 178 483 L 306 483 L 306 700.316406 L 178 700.316406 Z M 178 483 " clip-rule="nonzero"/></clipPath></defs><rect x="-81" width="972" fill="#ffffff" y="-80.999999" height="971.999992" fill-opacity="1"/><rect x="-81" width="972" fill="#ffffff" y="-80.999999" height="971.999992" fill-opacity="1"/><rect x="-81" width="972" fill="#ffffff" y="-80.999999" height="971.999992" fill-opacity="1"/><path fill="#ffd15c" d="M 673.382812 246.355469 C 683.535156 247.40625 690.277344 262.652344 688.445312 280.402344 C 686.605469 298.15625 676.878906 311.699219 666.726562 310.648438 C 656.570312 309.597656 649.828125 294.359375 651.660156 276.601562 C 653.503906 258.847656 663.226562 245.308594 673.382812 246.355469 Z M 673.382812 246.355469 " fill-opacity="1" fill-rule="nonzero"/><path fill="#ffd15c" d="M 496.398438 309.167969 C 486.242188 310.21875 476.519531 296.675781 474.679688 278.925781 C 472.84375 261.164062 479.585938 245.925781 489.742188 244.878906 C 499.898438 243.828125 509.621094 257.367188 511.453125 275.121094 C 513.296875 292.875 506.554688 308.117188 496.398438 309.167969 Z M 496.398438 309.167969 " fill-opacity="1" fill-rule="nonzero"/><g clip-path="url(#245e6a9b29)"><path fill="#344a5e" d="M 674.734375 260.058594 L 488.332031 260.058594 C 465.222656 158.484375 509.902344 109.242188 580.761719 109.242188 C 653.171875 109.242188 697.84375 158.484375 674.734375 260.058594 Z M 674.734375 260.058594 " fill-opacity="1" fill-rule="nonzero"/></g><path fill="#f7b64c" d="M 628.523438 347.789062 L 628.523438 369.324219 C 614.660156 401.644531 599.25 420.109375 582.304688 438.582031 C 565.359375 418.574219 549.953125 401.644531 536.085938 369.324219 L 536.085938 347.789062 C 548.414062 312.394531 566.898438 289.300781 582.304688 270.835938 C 597.707031 290.835938 616.199219 313.921875 628.523438 347.789062 Z M 628.523438 347.789062 " fill-opacity="1" fill-rule="nonzero"/><path fill="#ffffff" d="M 546.871094 540.15625 L 614.660156 540.15625 L 619.277344 533.996094 L 622.359375 427.816406 L 539.167969 427.816406 L 542.25 533.996094 Z M 546.871094 540.15625 " fill-opacity="1" fill-rule="nonzero"/><path fill="#344a5e" d="M 594.632812 466.289062 L 606.953125 453.96875 C 606.953125 453.96875 590.007812 427.816406 580.761719 427.816406 C 571.523438 427.816406 554.578125 453.96875 554.578125 453.96875 L 566.898438 466.289062 Z M 594.632812 466.289062 " fill-opacity="1" fill-rule="nonzero"/><path fill="#344a5e" d="M 605.414062 540.15625 L 594.632812 466.289062 L 566.898438 466.289062 L 556.113281 540.15625 Z M 605.414062 540.15625 " fill-opacity="1" fill-rule="nonzero"/><path fill="#f3f3f3" d="M 628.523438 363.175781 C 617.734375 387.796875 600.789062 409.339844 582.304688 427.816406 L 619.277344 464.738281 L 647.007812 393.953125 Z M 628.523438 363.175781 " fill-opacity="1" fill-rule="nonzero"/><path fill="#f3f3f3" d="M 534.550781 363.175781 C 543.796875 387.796875 560.742188 409.339844 580.761719 427.816406 L 543.796875 464.738281 L 516.058594 393.953125 Z M 534.550781 363.175781 " fill-opacity="1" fill-rule="nonzero"/><g clip-path="url(#5ff9c3725a)"><path fill="#4abaa5" d="M 774.875 540.15625 L 774.875 461.667969 C 774.875 438.582031 759.464844 420.109375 737.898438 415.496094 L 636.226562 395.488281 L 597.707031 540.15625 Z M 774.875 540.15625 " fill-opacity="1" fill-rule="nonzero"/></g><path fill="#4abaa5" d="M 565.359375 540.15625 L 526.847656 395.488281 L 425.175781 415.496094 C 403.601562 420.109375 388.199219 438.582031 388.199219 461.667969 L 388.199219 540.15625 Z M 565.359375 540.15625 " fill-opacity="1" fill-rule="nonzero"/><path fill="#66c6b9" d="M 623.898438 540.15625 L 677.816406 466.289062 L 656.253906 455.511719 L 691.683594 415.496094 L 636.226562 375.480469 L 596.171875 540.15625 Z M 623.898438 540.15625 " fill-opacity="1" fill-rule="nonzero"/><path fill="#66c6b9" d="M 485.25 466.289062 L 539.167969 540.15625 L 566.898438 540.15625 L 526.847656 375.480469 L 471.386719 415.496094 L 506.820312 455.511719 Z M 485.25 466.289062 " fill-opacity="1" fill-rule="nonzero"/><path fill="#ffd15c" d="M 647.007812 169.257812 C 636.226562 204.65625 605.414062 232.367188 557.660156 232.367188 C 533.003906 232.367188 512.984375 224.664062 497.578125 212.351562 C 494.496094 224.664062 492.957031 238.515625 492.957031 252.367188 C 492.957031 321.617188 533.003906 377.015625 580.761719 377.015625 C 628.523438 377.015625 668.574219 321.617188 668.574219 252.367188 C 670.117188 220.042969 660.871094 190.808594 647.007812 169.257812 Z M 647.007812 169.257812 " fill-opacity="1" fill-rule="nonzero"/><path fill="#ffd15c" d="M 444.917969 311.050781 C 458.460938 312.449219 467.519531 332.085938 465.160156 354.925781 C 462.796875 377.742188 449.898438 395.117188 436.359375 393.714844 C 422.820312 392.3125 413.757812 372.671875 416.121094 349.84375 C 418.488281 327.019531 431.378906 309.648438 444.917969 311.050781 Z M 444.917969 311.050781 " fill-opacity="1" fill-rule="nonzero"/><path fill="#ffd15c" d="M 211.542969 394.832031 C 198.003906 396.226562 185.109375 378.863281 182.742188 356.03125 C 180.378906 333.210938 189.441406 313.5625 202.980469 312.167969 C 216.527344 310.765625 229.417969 328.140625 231.78125 350.964844 C 234.144531 373.789062 225.082031 393.429688 211.542969 394.832031 Z M 211.542969 394.832031 " fill-opacity="1" fill-rule="nonzero"/><path fill="#344a5e" d="M 446.738281 329.316406 L 200.25 329.316406 C 169.441406 195.421875 227.988281 130.785156 323.5 130.785156 C 419.011719 130.785156 477.550781 195.421875 446.738281 329.316406 Z M 446.738281 329.316406 " fill-opacity="1" fill-rule="nonzero"/><path fill="#f7b64c" d="M 385.117188 446.273438 L 385.117188 475.519531 C 366.628906 518.605469 346.601562 541.691406 323.5 566.3125 C 300.390625 540.15625 280.363281 518.605469 261.871094 475.519531 L 261.871094 446.273438 C 278.816406 400.101562 303.472656 369.324219 323.5 344.710938 C 345.0625 369.324219 368.171875 400.101562 385.117188 446.273438 Z M 385.117188 446.273438 " fill-opacity="1" fill-rule="nonzero"/><g clip-path="url(#a400bc13f4)"><path fill="#ffffff" d="M 277.28125 700.214844 L 368.171875 700.214844 L 372.792969 690.96875 L 377.417969 549.382812 L 268.042969 549.382812 L 272.660156 690.96875 Z M 277.28125 700.214844 " fill-opacity="1" fill-rule="nonzero"/></g><path fill="#f3705a" d="M 340.445312 601.710938 L 357.390625 584.785156 C 357.390625 584.785156 334.28125 549.382812 321.953125 549.382812 C 309.632812 549.382812 286.523438 584.785156 286.523438 584.785156 L 303.472656 601.710938 Z M 340.445312 601.710938 " fill-opacity="1" fill-rule="nonzero"/><g clip-path="url(#85532222a3)"><path fill="#f3705a" d="M 355.847656 700.214844 L 340.445312 601.710938 L 303.472656 601.710938 L 289.605469 700.214844 Z M 355.847656 700.214844 " fill-opacity="1" fill-rule="nonzero"/></g><path fill="#f3f3f3" d="M 385.117188 466.289062 L 323.5 550.925781 L 371.253906 598.632812 L 408.226562 504.753906 Z M 385.117188 466.289062 " fill-opacity="1" fill-rule="nonzero"/><path fill="#f3f3f3" d="M 261.878906 466.289062 L 323.5 550.925781 L 275.742188 598.632812 L 238.769531 504.753906 Z M 261.878906 466.289062 " fill-opacity="1" fill-rule="nonzero"/><path fill="#ffd15c" d="M 363.554688 218.507812 C 331.199219 252.367188 286.523438 275.453125 226.441406 275.453125 L 214.121094 275.453125 C 209.496094 292.378906 207.960938 309.316406 207.960938 327.773438 C 207.960938 413.960938 260.335938 484.746094 323.5 484.746094 C 386.65625 484.746094 439.039062 413.960938 439.039062 327.773438 C 439.039062 298.539062 432.875 272.371094 423.628906 249.285156 C 400.519531 240.050781 380.492188 230.824219 363.554688 218.507812 Z M 363.554688 218.507812 " fill-opacity="1" fill-rule="nonzero"/><g clip-path="url(#865b104cdb)"><path fill="#415a6b" d="M 611.570312 700.214844 L 593.089844 612.484375 C 585.386719 570.933594 553.03125 538.613281 511.441406 530.917969 L 395.902344 507.832031 L 343.527344 700.214844 Z M 611.570312 700.214844 " fill-opacity="1" fill-rule="nonzero"/></g><g clip-path="url(#df883006b2)"><path fill="#415a6b" d="M 303.472656 700.214844 L 252.632812 507.832031 L 135.550781 530.917969 C 93.957031 538.613281 61.609375 570.933594 53.902344 612.484375 L 35.417969 700.214844 Z M 303.472656 700.214844 " fill-opacity="1" fill-rule="nonzero"/></g><g clip-path="url(#2ab18588e8)"><path fill="#344a5e" d="M 378.957031 700.214844 L 449.820312 601.710938 L 423.628906 586.320312 L 469.847656 535.53125 L 395.902344 483.210938 L 341.980469 700.214844 Z M 378.957031 700.214844 " fill-opacity="1" fill-rule="nonzero"/></g><g clip-path="url(#da375a81c9)"><path fill="#344a5e" d="M 197.175781 601.710938 L 268.042969 700.214844 L 305.007812 700.214844 L 252.632812 483.210938 L 178.6875 535.53125 L 224.90625 586.320312 Z M 197.175781 601.710938 " fill-opacity="1" fill-rule="nonzero"/></g></svg>